<svg width="68" height="68" viewBox="0 0 68 68" fill="none" xmlns="http://www.w3.org/2000/svg">
<path d="M48.875 10.625C44.2017 10.625 40.375 14.4517 40.375 19.125C40.375 20.7769 40.873 22.3125 41.7031 23.624L35.104 31.875H25.1929C24.2383 28.231 20.9346 25.5 17 25.5C12.3267 25.5 8.5 29.3267 8.5 34C8.5 38.6733 12.3267 42.5 17 42.5C20.9346 42.5 24.2383 39.769 25.1929 36.125H35.104L41.7031 44.376C40.873 45.6875 40.375 47.2231 40.375 48.875C40.375 53.5483 44.2017 57.375 48.875 57.375C53.5483 57.375 57.375 53.5483 57.375 48.875C57.375 44.2017 53.5483 40.375 48.875 40.375C47.3975 40.375 46.0278 40.79 44.8159 41.4624L38.8477 34L44.8159 26.5376C46.0278 27.21 47.3975 27.625 48.875 27.625C53.5483 27.625 57.375 23.7983 57.375 19.125C57.375 14.4517 53.5483 10.625 48.875 10.625ZM48.875 14.875C51.249 14.875 53.125 16.751 53.125 19.125C53.125 21.499 51.249 23.375 48.875 23.375C46.501 23.375 44.625 21.499 44.625 19.125C44.625 16.751 46.501 14.875 48.875 14.875ZM17 29.75C19.374 29.75 21.25 31.626 21.25 34C21.25 36.374 19.374 38.25 17 38.25C14.626 38.25 12.75 36.374 12.75 34C12.75 31.626 14.626 29.75 17 29.75ZM48.875 44.625C51.249 44.625 53.125 46.501 53.125 48.875C53.125 51.249 51.249 53.125 48.875 53.125C46.501 53.125 44.625 51.249 44.625 48.875C44.625 46.501 46.501 44.625 48.875 44.625Z" fill="#071540"/>
</svg>
