<svg width="31" height="31" viewBox="0 0 31 31" fill="none" xmlns="http://www.w3.org/2000/svg">
<path d="M2.29577 0H19.4315C20.6528 0 21.6462 0.99355 21.6462 2.21475V7.41291H19.6245V2.21475C19.6245 2.10834 19.5379 2.02174 19.4315 2.02174H2.29577C2.18936 2.02174 2.10276 2.10834 2.10276 2.21475V19.3505C2.10276 19.4569 2.18936 19.5435 2.29577 19.5435H7.33186V21.5653H2.29577C1.07457 21.5653 0.0810223 20.5717 0.0810223 19.3505V2.21475C0.0810897 0.99355 1.07457 0 2.29577 0Z" fill="#C4CBC6"/>
<path d="M11.5685 9.43457H28.7041C29.9254 9.43457 30.9189 10.4281 30.9189 11.6494V28.7851C30.9189 30.0064 29.9254 30.9999 28.7041 30.9999H11.5684C10.3471 30.9999 9.3536 30.0064 9.3536 28.7852V11.6494C9.35353 10.4281 10.3472 9.43457 11.5685 9.43457ZM11.5683 28.9782H28.7041C28.8106 28.9782 28.8972 28.8916 28.8972 28.7852V11.6494C28.8972 11.5429 28.8106 11.4563 28.7041 11.4563H11.5684C11.4619 11.4563 11.3753 11.5429 11.3753 11.6494V28.7852H11.3753C11.3753 28.8916 11.4619 28.9782 11.5683 28.9782Z" fill="#C4CBC6"/>
</svg>
