<svg width="132" height="132" viewBox="0 0 132 132" fill="none" xmlns="http://www.w3.org/2000/svg">
<path d="M66 0C29.55 0 0 29.55 0 66C0 102.45 29.55 132 66 132C102.45 132 132 102.45 132 66C132 29.55 102.45 0 66 0ZM66 12C95.823 12 120 36.177 120 66C120 90.7161 103.376 111.508 80.7129 117.92C80.4345 117.346 80.2435 116.718 80.2617 116.004C80.3547 112.377 80.2617 103.913 80.2617 100.805C80.2617 95.4707 76.8867 91.6875 76.8867 91.6875C76.8867 91.6875 103.359 91.9863 103.359 63.7383C103.359 52.8393 97.6641 47.1621 97.6641 47.1621C97.6641 47.1621 100.656 35.5268 96.627 30.5918C92.112 30.1028 84.0253 34.9044 80.5723 37.1484C80.5723 37.1484 75.102 34.9043 66 34.9043C56.898 34.9043 51.4277 37.1484 51.4277 37.1484C47.9747 34.9044 39.888 30.1058 35.373 30.5918C31.347 35.5268 34.3359 47.1621 34.3359 47.1621C34.3359 47.1621 28.6406 52.8334 28.6406 63.7324C28.6406 91.9804 55.1133 91.6875 55.1133 91.6875C55.1133 91.6875 52.099 95.1189 51.7969 100.037C50.0278 100.661 47.6164 101.396 45.3164 101.396C39.7664 101.396 35.55 96.0058 34.002 93.5098C32.478 91.0468 29.3535 88.9805 26.4375 88.9805C24.5175 88.9805 23.5781 89.945 23.5781 91.043C23.5781 92.141 26.2728 92.9055 28.0488 94.9395C31.7928 99.2295 31.7235 108.879 45.0645 108.879C46.6418 108.879 49.4761 108.516 51.7383 108.205C51.7258 111.234 51.6906 114.138 51.7383 115.998C51.7559 116.714 51.5614 117.345 51.2812 117.92C28.6208 111.506 12 90.7141 12 66C12 36.177 36.177 12 66 12Z" fill="#C4CBC6"/>
</svg>
