<svg width="132" height="132" viewBox="0 0 132 132" fill="none" xmlns="http://www.w3.org/2000/svg">
<path d="M38.8523 0C2.82294 0 0 2.81964 0 38.8523V93.1477C0 129.177 2.82294 132 38.8523 132H93.1477C129.177 132 132 129.18 132 93.1477V38.8523C132 2.81964 129.18 0 93.1477 0H38.8523ZM30.2543 13.2H101.746C117.563 13.2 118.8 14.4374 118.8 30.2543V101.746C118.8 117.563 117.559 118.8 101.746 118.8H30.2543C14.4374 118.8 13.2 117.559 13.2 101.746V30.2543C13.2 14.4374 14.4374 13.2 30.2543 13.2ZM34.6564 21.4629C29.2807 21.4629 24.924 25.8198 24.924 31.1889C24.924 36.558 29.2774 40.9213 34.6564 40.9213C40.0189 40.9213 44.376 36.5613 44.376 31.1889C44.376 25.8264 40.0189 21.4629 34.6564 21.4629ZM85.5809 47.2635C77.4629 47.2635 72.0173 51.7182 69.7898 55.9389H69.5578V48.6041H53.5541V102.3H70.2281V75.7324C70.2281 68.7265 71.5683 61.9459 80.2506 61.9459C88.8108 61.9459 88.9195 69.9629 88.9195 76.19V102.3H105.6V72.8449C105.6 58.3843 102.48 47.2635 85.5809 47.2635ZM26.3098 48.6041V102.3H42.9967V48.6041H26.3098Z" fill="#C4CBC6"/>
</svg>
