<svg width="60" height="60" viewBox="0 0 60 60" fill="none" xmlns="http://www.w3.org/2000/svg">
<path d="M2.25 53.25V6.75H17.6895L22.1895 11.25H53.25V53.25H2.25Z" fill="#B6DCFE"/>
<path d="M17.379 7.5L21.4395 11.5605L21.879 12H22.5H52.5V52.5H3V7.5H17.379ZM18 6H1.5V54H54V10.5H22.5L18 6Z" fill="#4788C7"/>
<path d="M2.39844 53.25L8.12544 21.75H24.2264L28.7264 18.75H59.1149L53.3654 53.25H2.39844Z" fill="#DFF0FE"/>
<path d="M58.23 19.5L52.7295 52.5H3.297L8.751 22.5H24H24.4545L24.8325 22.248L28.9545 19.5H58.23ZM60 18H28.5L24 21H7.5L1.5 54H54L60 18Z" fill="#4788C7"/>
</svg>
