<svg width="60" height="60" viewBox="0 0 60 60" fill="none" xmlns="http://www.w3.org/2000/svg">
<path d="M2.25 53.25V6.75H17.6895L22.1895 11.25H57.75V53.25H2.25Z" fill="#B6DCFE"/>
<path d="M17.379 7.5L21.4395 11.5605L21.879 12H22.5H57V52.5H3V7.5H17.379ZM18 6H1.5V54H58.5V10.5H22.5L18 6Z" fill="#4788C7"/>
<path d="M2.25 53.25V14.25H18.2265L22.7265 11.25H57.75V53.25H2.25Z" fill="#DFF0FE"/>
<path d="M57 12V52.5H3V15H18H18.4545L18.8325 14.748L22.9545 12H57ZM58.5 10.5H22.5L18 13.5H1.5V54H58.5V10.5Z" fill="#4788C7"/>
</svg>
